<svg width="15" height="15" viewBox="0 0 15 15" fill="none" xmlns="http://www.w3.org/2000/svg">
<mask id="mask0_1_795" style="mask-type:alpha" maskUnits="userSpaceOnUse" x="0" y="0" width="15" height="15">
<rect x="0.923096" y="0.741943" width="13.392" height="13.392" fill="#D9D9D9"/>
</mask>
<g mask="url(#mask0_1_795)">
<path d="M5.10793 9.94828H10.1299V9.39028H5.10793V9.94828ZM7.61893 8.16701L9.46466 6.32128L9.06973 5.92636L7.89793 7.09174V4.36828H7.33993V7.09174L6.16813 5.92636L5.7732 6.32128L7.61893 8.16701ZM7.62074 12.4593C6.92631 12.4593 6.2734 12.3275 5.66202 12.0639C5.05073 11.8004 4.51896 11.4427 4.0667 10.9909C3.61444 10.5391 3.25643 10.0078 2.99269 9.39698C2.72884 8.78625 2.59692 8.13362 2.59692 7.4391C2.59692 6.74467 2.7287 6.09176 2.99227 5.48038C3.25583 4.86909 3.61351 4.33731 4.0653 3.88505C4.5171 3.4328 5.04841 3.07479 5.65923 2.81104C6.26996 2.5472 6.92259 2.41528 7.61712 2.41528C8.31155 2.41528 8.96446 2.54706 9.57584 2.81063C10.1871 3.07419 10.7189 3.43187 11.1712 3.88366C11.6234 4.33545 11.9814 4.86676 12.2452 5.47759C12.509 6.08832 12.6409 6.74095 12.6409 7.43547C12.6409 8.1299 12.5092 8.78281 12.2456 9.39419C11.982 10.0055 11.6244 10.5373 11.1726 10.9895C10.7208 11.4418 10.1895 11.7998 9.57863 12.0635C8.9679 12.3274 8.31527 12.4593 7.62074 12.4593ZM7.61893 11.9013C8.86513 11.9013 9.92068 11.4688 10.7856 10.6039C11.6505 9.73903 12.0829 8.68348 12.0829 7.43728C12.0829 6.19108 11.6505 5.13553 10.7856 4.27063C9.92068 3.40573 8.86513 2.97328 7.61893 2.97328C6.37273 2.97328 5.31718 3.40573 4.45228 4.27063C3.58738 5.13553 3.15492 6.19108 3.15492 7.43728C3.15492 8.68348 3.58738 9.73903 4.45228 10.6039C5.31718 11.4688 6.37273 11.9013 7.61893 11.9013Z" fill="white"/>
</g>
</svg>
