<svg width="14" height="15" viewBox="0 0 14 15" fill="none" xmlns="http://www.w3.org/2000/svg">
<mask id="mask0_1_802" style="mask-type:alpha" maskUnits="userSpaceOnUse" x="0" y="0" width="14" height="15">
<rect x="0.503174" y="0.741943" width="13.392" height="13.392" fill="#D9D9D9"/>
</mask>
<g mask="url(#mask0_1_802)">
<path d="M3.95856 10.4976C4.43286 10.1564 4.93613 9.88658 5.46837 9.68812C6.00061 9.48956 6.57684 9.39028 7.19705 9.39028C7.81727 9.39028 8.3935 9.48956 8.92574 9.68812C9.45798 9.88658 9.96125 10.1564 10.4356 10.4976C10.804 10.1163 11.1004 9.66603 11.3246 9.14672C11.5489 8.62731 11.6611 8.0575 11.6611 7.43728C11.6611 6.20038 11.2263 5.14716 10.3567 4.27761C9.48718 3.40806 8.43396 2.97328 7.19705 2.97328C5.96015 2.97328 4.90693 3.40806 4.03738 4.27761C3.16783 5.14716 2.73305 6.20038 2.73305 7.43728C2.73305 8.0575 2.84521 8.62731 3.06952 9.14672C3.29375 9.66603 3.59009 10.1163 3.95856 10.4976ZM7.19733 7.71628C6.72713 7.71628 6.33053 7.55488 6.00754 7.23208C5.68455 6.90928 5.52305 6.51277 5.52305 6.04256C5.52305 5.57235 5.68445 5.17576 6.00726 4.85277C6.33006 4.52978 6.72657 4.36828 7.19678 4.36828C7.66698 4.36828 8.06358 4.52969 8.38657 4.85249C8.70956 5.17529 8.87106 5.5718 8.87106 6.042C8.87106 6.51221 8.70966 6.90881 8.38685 7.2318C8.06405 7.55479 7.66754 7.71628 7.19733 7.71628ZM7.19705 12.4593C6.49667 12.4593 5.84102 12.3289 5.2301 12.0681C4.61918 11.8074 4.08764 11.4509 3.63548 10.9989C3.1834 10.5467 2.82698 10.0152 2.56621 9.40423C2.30543 8.79332 2.17505 8.13767 2.17505 7.43728C2.17505 6.7369 2.30543 6.08125 2.56621 5.47033C2.82698 4.85942 3.1834 4.32787 3.63548 3.87571C4.08764 3.42364 4.61918 3.06721 5.2301 2.80644C5.84102 2.54567 6.49667 2.41528 7.19705 2.41528C7.89744 2.41528 8.55309 2.54567 9.16401 2.80644C9.77493 3.06721 10.3065 3.42364 10.7586 3.87571C11.2107 4.32787 11.5671 4.85942 11.8279 5.47033C12.0887 6.08125 12.2191 6.7369 12.2191 7.43728C12.2191 8.13767 12.0887 8.79332 11.8279 9.40423C11.5671 10.0152 11.2107 10.5467 10.7586 10.9989C10.3065 11.4509 9.77493 11.8074 9.16401 12.0681C8.55309 12.3289 7.89744 12.4593 7.19705 12.4593ZM7.19705 11.9013C7.71144 11.9013 8.21759 11.8113 8.71551 11.6314C9.21334 11.4515 9.64361 11.2052 10.0063 10.8926C9.64361 10.6014 9.22404 10.3712 8.7476 10.202C8.27116 10.0329 7.75431 9.94828 7.19705 9.94828C6.6398 9.94828 6.12114 10.0311 5.64107 10.1967C5.1611 10.3624 4.74334 10.5943 4.3878 10.8926C4.7505 11.2052 5.18077 11.4515 5.6786 11.6314C6.17652 11.8113 6.68267 11.9013 7.19705 11.9013ZM7.19705 7.15828C7.51037 7.15828 7.77472 7.05064 7.99011 6.83534C8.20541 6.61995 8.31306 6.3556 8.31306 6.04228C8.31306 5.72897 8.20541 5.46461 7.99011 5.24923C7.77472 5.03393 7.51037 4.92628 7.19705 4.92628C6.88374 4.92628 6.61938 5.03393 6.404 5.24923C6.1887 5.46461 6.08105 5.72897 6.08105 6.04228C6.08105 6.3556 6.1887 6.61995 6.404 6.83534C6.61938 7.05064 6.88374 7.15828 7.19705 7.15828Z" fill="white"/>
</g>
</svg>
