<svg width="23" height="25" viewBox="0 0 23 25" fill="none" xmlns="http://www.w3.org/2000/svg">
<path d="M14.2743 4.50009H9.06781M22.0841 6.2773V18.1254C22.0841 22.8646 20.7824 24.0494 15.5759 24.0494H7.76618C2.55968 24.0494 1.25806 22.8646 1.25806 18.1254V6.2773C1.25806 1.53808 2.55968 0.353271 7.76618 0.353271H15.5759C20.7824 0.353271 22.0841 1.53808 22.0841 6.2773Z" stroke="#585858" stroke-width="0.702" stroke-linecap="round" stroke-linejoin="round"/>
<path d="M11.6708 20.6138C12.2059 20.6138 12.7191 20.4203 13.0974 20.0759C13.4758 19.7315 13.6884 19.2644 13.6884 18.7774C13.6884 18.2903 13.4758 17.8232 13.0974 17.4788C12.7191 17.1344 12.2059 16.9409 11.6708 16.9409C11.1358 16.9409 10.6226 17.1344 10.2442 17.4788C9.86588 17.8232 9.65332 18.2903 9.65332 18.7774C9.65332 19.2644 9.86588 19.7315 10.2442 20.0759C10.6226 20.4203 11.1358 20.6138 11.6708 20.6138Z" stroke="#585858" stroke-width="0.702" stroke-linecap="round" stroke-linejoin="round"/>
</svg>
