<svg width="20" height="13" viewBox="0 0 20 13" fill="none" xmlns="http://www.w3.org/2000/svg">
<path d="M17.8142 2.28012C16.6877 2.37712 15.2068 3.9483 13.7791 4.85164C12.0278 5.95879 9.30298 5.06866 9.30245 5.06866C9.72258 4.79323 11.4314 4.22492 11.7758 4.01414C13.6045 2.88999 13.4488 0.548106 12.578 0.567255C11.4278 0.594197 10.7517 0.98868 8.45511 1.42591C6.71462 1.75634 4.65647 1.63544 3.66898 2.16196C2.27523 2.9055 0.0310059 7.90731 0.0310059 7.90731L3.50241 12.6044C3.50241 12.6044 5.65097 9.64919 6.69629 9.64919C9.07843 9.64919 9.17399 9.60429 11.386 9.4367C12.3274 9.36633 12.5237 9.31238 13.0613 9.05913C15.9291 7.7052 19.0075 4.09979 19.0642 3.66582C19.1959 2.66132 18.4084 2.22831 17.8142 2.28012Z" fill="#216900"/>
</svg>
