<svg width="19" height="24" viewBox="0 0 19 24" fill="none" xmlns="http://www.w3.org/2000/svg">
<path d="M16.9344 17.3051C17.6567 17.818 18.037 18.3997 18.037 18.9918C18.037 19.584 17.6567 20.1657 16.9344 20.6786C16.2122 21.1914 15.1733 21.6172 13.9223 21.9133C12.6712 22.2094 11.2521 22.3653 9.80755 22.3653C8.36298 22.3653 6.94387 22.2094 5.69284 21.9133C4.44181 21.6172 3.40294 21.1914 2.68066 20.6786C1.95838 20.1657 1.57813 19.584 1.57813 18.9918C1.57812 18.3997 1.95838 17.818 2.68066 17.3051" stroke="#216900" stroke-width="1.6723" stroke-linecap="round"/>
<path d="M17.0691 9.43358C17.0691 15.4483 11.0317 19.3762 9.96722 20.0219C9.86731 20.0826 9.74846 20.0826 9.64855 20.0219C8.58409 19.3762 2.54663 15.4483 2.54663 9.43358C2.54663 4.37343 6.06496 1 9.80788 1C13.6806 1 17.0691 4.37343 17.0691 9.43358Z" stroke="#216900" stroke-width="1.6723"/>
<path d="M12.8433 9.4337C12.8433 11.5779 11.3707 13.0955 9.80675 13.0955C8.24279 13.0955 6.77023 11.5779 6.77023 9.4337C6.77023 7.28954 8.24279 5.77194 9.80675 5.77194C11.3707 5.77194 12.8433 7.28954 12.8433 9.4337Z" stroke="#216900" stroke-width="1.6723"/>
</svg>
