<svg width="8" height="9" viewBox="0 0 8 9" fill="none" xmlns="http://www.w3.org/2000/svg">
<path d="M7.34201 3.77305H1.16748M5.62686 0.94165V2.35735M2.88263 0.94165V2.35735M2.81402 8.02015H5.69547C6.27181 8.02015 6.55998 8.02015 6.78012 7.90442C6.97375 7.80263 7.13118 7.6402 7.22984 7.44041C7.34201 7.21328 7.34201 6.91596 7.34201 6.32131V3.34834C7.34201 2.75369 7.34201 2.45637 7.22984 2.22924C7.13118 2.02945 6.97375 1.86702 6.78012 1.76523C6.55998 1.6495 6.27181 1.6495 5.69547 1.6495H2.81402C2.23768 1.6495 1.94951 1.6495 1.72937 1.76523C1.53574 1.86702 1.37831 2.02945 1.27964 2.22924C1.16748 2.45637 1.16748 2.75369 1.16748 3.34834V6.32131C1.16748 6.91596 1.16748 7.21328 1.27964 7.44041C1.37831 7.6402 1.53574 7.80263 1.72937 7.90442C1.94951 8.02015 2.23768 8.02015 2.81402 8.02015Z" stroke="#585858" stroke-width="0.4719" stroke-linecap="round" stroke-linejoin="round"/>
</svg>
