<svg width="22" height="22" viewBox="0 0 22 22" fill="none" xmlns="http://www.w3.org/2000/svg">
<mask id="mask0_1_996" style="mask-type:alpha" maskUnits="userSpaceOnUse" x="0" y="0" width="22" height="22">
<rect x="0.258057" y="0.145508" width="21.06" height="21.06" fill="#D9D9D9"/>
</mask>
<g mask="url(#mask0_1_996)">
<path d="M10.4366 16.3793H11.0947V15.3701C11.6943 15.3409 12.2903 15.1325 12.8826 14.7449C13.4749 14.3574 13.7711 13.7468 13.7711 12.9131C13.7711 12.2989 13.5809 11.787 13.2007 11.3775C12.8204 10.968 12.1038 10.5731 11.0508 10.1929C10.0563 9.84189 9.43476 9.54207 9.18613 9.29345C8.93751 9.04482 8.8132 8.68651 8.8132 8.21851C8.8132 7.75051 8.99966 7.35564 9.3726 7.03389C9.74554 6.71214 10.2318 6.55126 10.8314 6.55126C11.2702 6.55126 11.6431 6.64998 11.9503 6.84742C12.2574 7.04485 12.5133 7.29714 12.7181 7.60426L13.2884 7.38489C13.0691 6.99001 12.7656 6.6646 12.378 6.40867C11.9905 6.15273 11.5773 6.01014 11.1386 5.98089V4.97176H10.4804V5.98089C9.70532 6.09789 9.12398 6.3721 8.73641 6.80354C8.34885 7.23498 8.15507 7.70663 8.15507 8.21851C8.15507 8.83276 8.35251 9.3227 8.74738 9.68832C9.14226 10.0539 9.82232 10.4123 10.7876 10.7633C11.7382 11.1143 12.3707 11.4324 12.6852 11.7175C12.9996 12.0027 13.1568 12.4013 13.1568 12.9131C13.1568 13.5713 12.9155 14.0429 12.4329 14.3281C11.9503 14.6133 11.4457 14.7559 10.9192 14.7559C10.4073 14.7559 9.94298 14.6096 9.52616 14.3171C9.10935 14.0246 8.76932 13.6151 8.50607 13.0886L7.9357 13.3519C8.19895 13.9223 8.53898 14.361 8.95579 14.6681C9.3726 14.9753 9.8662 15.1946 10.4366 15.3263V16.3793ZM10.7876 18.3098C9.73457 18.3098 8.74373 18.1087 7.81504 17.7065C6.88635 17.3043 6.07832 16.7595 5.39095 16.0721C4.70357 15.3848 4.15879 14.5767 3.7566 13.648C3.35441 12.7194 3.15332 11.7285 3.15332 10.6755C3.15332 9.62251 3.35441 8.63167 3.7566 7.70298C4.15879 6.77429 4.70357 5.96626 5.39095 5.27888C6.07832 4.59151 6.88635 4.04673 7.81504 3.64454C8.74373 3.24235 9.73457 3.04126 10.7876 3.04126C11.8406 3.04126 12.8314 3.24235 13.7601 3.64454C14.6888 4.04673 15.4968 4.59151 16.1842 5.27888C16.8716 5.96626 17.4164 6.77429 17.8185 7.70298C18.2207 8.63167 18.4218 9.62251 18.4218 10.6755C18.4218 11.7285 18.2207 12.7194 17.8185 13.648C17.4164 14.5767 16.8716 15.3848 16.1842 16.0721C15.4968 16.7595 14.6888 17.3043 13.7601 17.7065C12.8314 18.1087 11.8406 18.3098 10.7876 18.3098ZM10.7876 17.6955C12.7473 17.6955 14.4073 17.0154 15.7674 15.6553C17.1275 14.2952 17.8076 12.6353 17.8076 10.6755C17.8076 8.71576 17.1275 7.05582 15.7674 5.6957C14.4073 4.33557 12.7473 3.65551 10.7876 3.65551C8.82782 3.65551 7.16788 4.33557 5.80776 5.6957C4.44763 7.05582 3.76757 8.71576 3.76757 10.6755C3.76757 12.6353 4.44763 14.2952 5.80776 15.6553C7.16788 17.0154 8.82782 17.6955 10.7876 17.6955Z" fill="#1C1B1F"/>
</g>
</svg>
