<svg width="22" height="21" viewBox="0 0 22 21" fill="none" xmlns="http://www.w3.org/2000/svg">
<path d="M13.2763 2.15625H8.7338C7.13059 2.15625 6.77433 2.90158 6.56947 3.82081L5.83911 7.06708H16.1709L15.4406 3.82081C15.2357 2.90158 14.8795 2.15625 13.2763 2.15625Z" stroke="#216900" stroke-width="1.73501" stroke-linecap="round" stroke-linejoin="round"/>
<path d="M17.4536 12.3589C17.5248 13.0628 16.9192 13.6674 16.1443 13.6674H14.933C14.2382 13.6674 14.1403 13.3941 14.0156 13.0463L13.882 12.6901C13.7038 12.2015 13.5881 11.8703 12.6528 11.8703H9.34843C8.42213 11.8703 8.27962 12.2429 8.1193 12.6901L7.9857 13.0463C7.86101 13.3858 7.76303 13.6674 7.06831 13.6674H5.85699C5.0821 13.6674 4.47644 13.0628 4.54769 12.3589L4.91287 8.69858C5.00194 7.79591 5.18898 7.05884 6.88126 7.05884H15.12C16.8123 7.05884 16.9993 7.79591 17.0884 8.69858L17.4536 12.3589Z" stroke="#216900" stroke-width="1.73501" stroke-linecap="round" stroke-linejoin="round"/>
<path d="M5.83915 5.26172H5.18896" stroke="#216900" stroke-width="1.73501" stroke-linecap="round" stroke-linejoin="round"/>
<path d="M16.8211 5.26172H16.1709" stroke="#216900" stroke-width="1.73501" stroke-linecap="round" stroke-linejoin="round"/>
<path d="M7.13062 9.46875H9.06339" stroke="#216900" stroke-width="1.73501" stroke-linecap="round" stroke-linejoin="round"/>
<path d="M12.9465 9.46875H14.8793" stroke="#216900" stroke-width="1.73501" stroke-linecap="round" stroke-linejoin="round"/>
<path d="M11.0051 14.5784V15.4065" stroke="#216900" stroke-width="1.73501" stroke-linecap="round" stroke-linejoin="round"/>
<path d="M11.0051 17.8909V18.719" stroke="#216900" stroke-width="1.73501" stroke-linecap="round" stroke-linejoin="round"/>
<path d="M2.98906 15.4065L2.09839 18.719" stroke="#216900" stroke-width="1.73501" stroke-linecap="round" stroke-linejoin="round"/>
<path d="M19.0212 15.4065L19.9119 18.719" stroke="#216900" stroke-width="1.73501" stroke-linecap="round" stroke-linejoin="round"/>
</svg>
