<svg width="25" height="24" viewBox="0 0 25 24" fill="none" xmlns="http://www.w3.org/2000/svg">
<path d="M18.5012 7.47987C18.4404 7.47029 18.3695 7.47029 18.3087 7.47987C16.91 7.43196 15.7952 6.34916 15.7952 5.00764C15.7952 3.63737 16.9607 2.5354 18.41 2.5354C19.8594 2.5354 21.0249 3.64695 21.0249 5.00764C21.0148 6.34916 19.8999 7.43196 18.5012 7.47987Z" stroke="#585858" stroke-width="0.88452" stroke-linecap="round" stroke-linejoin="round"/>
<path d="M17.4574 14.4557C18.8459 14.6761 20.3763 14.4462 21.4507 13.7658C22.8797 12.8651 22.8797 11.3894 21.4507 10.4887C20.3662 9.80832 18.8155 9.57834 17.427 9.80831" stroke="#585858" stroke-width="0.88452" stroke-linecap="round" stroke-linejoin="round"/>
<path d="M6.3088 7.47987C6.36962 7.47029 6.44056 7.47029 6.50137 7.47987C7.90002 7.43196 9.01488 6.34916 9.01488 5.00764C9.01488 3.63737 7.84934 2.5354 6.40002 2.5354C4.9507 2.5354 3.78516 3.64695 3.78516 5.00764C3.79529 6.34916 4.91016 7.43196 6.3088 7.47987Z" stroke="#585858" stroke-width="0.88452" stroke-linecap="round" stroke-linejoin="round"/>
<path d="M7.35287 14.4557C5.96436 14.6761 4.43395 14.4462 3.35963 13.7658C1.93058 12.8651 1.93058 11.3894 3.35963 10.4887C4.44409 9.80832 5.99476 9.57834 7.38327 9.80831" stroke="#585858" stroke-width="0.88452" stroke-linecap="round" stroke-linejoin="round"/>
<path d="M12.4202 14.6378C12.3594 14.6282 12.2884 14.6282 12.2276 14.6378C10.829 14.5899 9.71411 13.5071 9.71411 12.1656C9.71411 10.7953 10.8796 9.69336 12.329 9.69336C13.7783 9.69336 14.9438 10.8049 14.9438 12.1656C14.9337 13.5071 13.8188 14.5995 12.4202 14.6378Z" stroke="#585858" stroke-width="0.88452" stroke-linecap="round" stroke-linejoin="round"/>
<path d="M9.47096 17.6563C8.04191 18.5571 8.04191 20.0327 9.47096 20.9335C11.0926 21.9588 13.748 21.9588 15.3696 20.9335C16.7987 20.0327 16.7987 18.5571 15.3696 17.6563C13.7581 16.6406 11.0926 16.6406 9.47096 17.6563Z" stroke="#585858" stroke-width="0.88452" stroke-linecap="round" stroke-linejoin="round"/>
</svg>
